<svg width="12" height="12" viewBox="0 0 12 12" fill="none" xmlns="http://www.w3.org/2000/svg">
<path d="M2.33398 11.1719H9.44141C10.0547 11.1719 10.5137 11.0195 10.8184 10.7148C11.127 10.4141 11.2812 9.96094 11.2812 9.35547V2.20117C11.2812 1.5957 11.127 1.14258 10.8184 0.841797C10.5137 0.537109 10.0547 0.384766 9.44141 0.384766H2.33398C1.7207 0.384766 1.25977 0.537109 0.951172 0.841797C0.646484 1.14258 0.494141 1.5957 0.494141 2.20117V9.35547C0.494141 9.96094 0.646484 10.4141 0.951172 10.7148C1.25977 11.0195 1.7207 11.1719 2.33398 11.1719ZM9.00195 5.75781C9.00195 5.87891 8.94336 5.99805 8.82617 6.11523L6.79297 8.16016C6.70703 8.24609 6.59961 8.28906 6.4707 8.28906C6.3457 8.28906 6.24023 8.24609 6.1543 8.16016C6.07227 8.07422 6.03125 7.96875 6.03125 7.84375C6.03125 7.71484 6.07812 7.60547 6.17188 7.51562L6.92188 6.77734L7.6543 6.16211L6.37109 6.21484H3.23633C3.10352 6.21484 2.99414 6.17188 2.9082 6.08594C2.82227 6 2.7793 5.89062 2.7793 5.75781C2.7793 5.625 2.82227 5.51562 2.9082 5.42969C2.99414 5.34375 3.10352 5.30078 3.23633 5.30078H6.37109L7.64844 5.35352L6.92188 4.74414L6.17188 4C6.07812 3.90234 6.03125 3.79492 6.03125 3.67773C6.03125 3.55273 6.07227 3.44922 6.1543 3.36719C6.24023 3.28125 6.3457 3.23828 6.4707 3.23828C6.60352 3.23828 6.71094 3.2793 6.79297 3.36133L8.82617 5.40625C8.94336 5.52344 9.00195 5.64062 9.00195 5.75781Z" fill="#191919"/>
</svg>
