<svg width="30" height="24" viewBox="0 0 30 24" fill="none" xmlns="http://www.w3.org/2000/svg">
<path d="M7.04102 21.7109C7.45117 21.7109 7.76367 21.5156 8.25195 21.0664L11.0156 18.5273C10.4688 18.0879 10 17.3457 10 15.832V8.95703C10 5.88086 11.8848 4.03516 14.9609 4.03516H21.9922L21.9824 3.73242C21.8066 1.78906 20.5176 0.480469 18.1934 0.480469H4.61914C2.27539 0.480469 0.800781 1.84766 0.800781 4.23047V14.0156C0.800781 16.3691 2.24609 17.8145 4.55078 17.8145H6.11328V20.6465C6.11328 21.291 6.45508 21.7109 7.04102 21.7109ZM23.4961 23.1172C24.0918 23.1172 24.4336 22.6973 24.4336 22.0527V19.2207H25.4395C27.7441 19.2207 29.1895 17.7754 29.1895 15.4219V9.21094C29.1895 6.82812 27.7148 5.46094 25.3711 5.46094H15.2539C12.8223 5.46094 11.4355 6.81836 11.4355 9.25V15.4219C11.4355 17.7949 12.832 19.2207 15.2539 19.2207H18.6914L22.2949 22.4727C22.7832 22.9219 23.0859 23.1172 23.4961 23.1172Z" fill="#E0E0E0"/>
</svg>
