<svg width="30" height="27" viewBox="0 0 30 27" fill="none" xmlns="http://www.w3.org/2000/svg">
<path d="M0.691406 12.8516C0.691406 13.4609 1.14844 13.9766 1.89844 13.9766C2.26172 13.9766 2.57812 13.7773 2.85938 13.543L14.5078 3.78125C14.8242 3.5 15.1875 3.5 15.5039 3.78125L27.1406 13.543C27.4219 13.7773 27.7383 13.9766 28.1016 13.9766C28.7812 13.9766 29.2969 13.5547 29.2969 12.8867C29.2969 12.4883 29.1445 12.1719 28.8398 11.9258L25.5469 9.14844V4.30859C25.5469 3.78125 25.207 3.44141 24.6914 3.44141H23.1094C22.582 3.44141 22.2305 3.78125 22.2305 4.30859V6.37109L16.6523 1.67188C15.6445 0.828125 14.3789 0.828125 13.3594 1.67188L1.14844 11.9258C0.84375 12.1836 0.691406 12.5234 0.691406 12.8516ZM4.48828 23.3867C4.48828 25.0742 5.54297 26.082 7.26562 26.082H22.7227C24.457 26.082 25.5117 25.0742 25.5117 23.3867V14.457L15.7148 6.24219C15.2695 5.85547 14.7188 5.86719 14.2734 6.24219L4.48828 14.4453V23.3867ZM18.0586 23.7148H11.918V16.1797C11.918 15.6289 12.2812 15.2773 12.832 15.2773H17.1562C17.707 15.2773 18.0586 15.6289 18.0586 16.1797V23.7148Z" fill="#E0E0E0"/>
</svg>
