<svg width="13" height="13" viewBox="0 0 13 13" fill="none" xmlns="http://www.w3.org/2000/svg">
<path d="M5.96094 12.8926H7.03906C7.19141 12.8926 7.32031 12.8496 7.42578 12.7637C7.53125 12.6816 7.59961 12.5645 7.63086 12.4121L7.93555 11.123C8.04883 11.084 8.16016 11.043 8.26953 11C8.37891 10.957 8.48242 10.9121 8.58008 10.8652L9.71094 11.5566C9.83594 11.6348 9.96484 11.668 10.0977 11.6562C10.2344 11.6445 10.3555 11.5859 10.4609 11.4805L11.2168 10.7305C11.3223 10.625 11.3809 10.502 11.3926 10.3613C11.4082 10.2207 11.373 10.0879 11.2871 9.96289L10.5957 8.84375C10.6465 8.74219 10.6914 8.63867 10.7305 8.5332C10.7734 8.42773 10.8125 8.32227 10.8477 8.2168L12.1484 7.90625C12.2969 7.875 12.4121 7.80664 12.4941 7.70117C12.5801 7.5957 12.623 7.4668 12.623 7.31445V6.25391C12.623 6.10547 12.5801 5.97852 12.4941 5.87305C12.4121 5.76758 12.2969 5.69922 12.1484 5.66797L10.8594 5.35742C10.8203 5.23633 10.7773 5.12305 10.7305 5.01758C10.6875 4.91211 10.6465 4.8125 10.6074 4.71875L11.2988 3.58203C11.3809 3.45703 11.416 3.32812 11.4043 3.19531C11.3965 3.05859 11.3379 2.9375 11.2285 2.83203L10.4609 2.07617C10.3516 1.97852 10.2344 1.92188 10.1094 1.90625C9.98438 1.88672 9.85742 1.91406 9.72852 1.98828L8.58008 2.69727C8.48633 2.64648 8.38477 2.59961 8.27539 2.55664C8.16992 2.51367 8.05664 2.47266 7.93555 2.43359L7.63086 1.12695C7.59961 0.978516 7.53125 0.861328 7.42578 0.775391C7.32031 0.689453 7.19141 0.646484 7.03906 0.646484H5.96094C5.80859 0.646484 5.67969 0.689453 5.57422 0.775391C5.46875 0.861328 5.39844 0.978516 5.36328 1.12695L5.05859 2.42188C4.94531 2.46094 4.83203 2.50391 4.71875 2.55078C4.60938 2.59375 4.50586 2.64062 4.4082 2.69141L3.27148 1.98828C3.14258 1.91406 3.01367 1.88477 2.88477 1.90039C2.75977 1.91602 2.64258 1.97461 2.5332 2.07617L1.77148 2.83203C1.66211 2.9375 1.60156 3.05859 1.58984 3.19531C1.57812 3.32812 1.61523 3.45703 1.70117 3.58203L2.38672 4.71875C2.34766 4.8125 2.30469 4.91211 2.25781 5.01758C2.21484 5.12305 2.17578 5.23633 2.14062 5.35742L0.851562 5.66797C0.699219 5.69922 0.582031 5.76758 0.5 5.87305C0.417969 5.97852 0.376953 6.10547 0.376953 6.25391V7.31445C0.376953 7.4668 0.417969 7.5957 0.5 7.70117C0.582031 7.80664 0.699219 7.875 0.851562 7.90625L2.15234 8.2168C2.18359 8.32227 2.2207 8.42773 2.26367 8.5332C2.30664 8.63867 2.35156 8.74219 2.39844 8.84375L1.71289 9.96289C1.62695 10.0879 1.58984 10.2207 1.60156 10.3613C1.61719 10.502 1.67773 10.625 1.7832 10.7305L2.5332 11.4805C2.63867 11.5859 2.75781 11.6445 2.89062 11.6562C3.02734 11.668 3.16016 11.6348 3.28906 11.5566L4.41406 10.8652C4.51172 10.9121 4.61523 10.957 4.72461 11C4.83398 11.043 4.94531 11.084 5.05859 11.123L5.36328 12.4121C5.39844 12.5645 5.46875 12.6816 5.57422 12.7637C5.67969 12.8496 5.80859 12.8926 5.96094 12.8926ZM6.5 8.83789C6.12109 8.83789 5.77344 8.74414 5.45703 8.55664C5.14453 8.36914 4.89453 8.11914 4.70703 7.80664C4.52344 7.49023 4.43164 7.14258 4.43164 6.76367C4.43164 6.38477 4.52539 6.04102 4.71289 5.73242C4.90039 5.41992 5.15039 5.16992 5.46289 4.98242C5.77539 4.79492 6.12109 4.70117 6.5 4.70117C6.87891 4.70117 7.22461 4.79492 7.53711 4.98242C7.85352 5.16992 8.10352 5.41992 8.28711 5.73242C8.47461 6.04102 8.56836 6.38477 8.56836 6.76367C8.56836 7.14258 8.47461 7.49023 8.28711 7.80664C8.10352 8.11914 7.85352 8.36914 7.53711 8.55664C7.22461 8.74414 6.87891 8.83789 6.5 8.83789Z" fill="#EF6212"/>
</svg>
