<svg width="8" height="14" viewBox="0 0 8 14" fill="none" xmlns="http://www.w3.org/2000/svg">
<path d="M7.72559 7.14307C7.72559 6.89404 7.63037 6.66699 7.43262 6.48389L1.72705 0.902832C1.56592 0.741699 1.36816 0.661133 1.12646 0.661133C0.65039 0.661133 0.276855 1.03467 0.276855 1.50342C0.276855 1.73779 0.37207 1.95752 0.533203 2.11865L5.68213 7.14307L0.533203 12.1675C0.37207 12.3359 0.276855 12.5483 0.276855 12.7827C0.276855 13.2588 0.650391 13.6323 1.12646 13.6323C1.36084 13.6323 1.56592 13.5444 1.72705 13.3833L7.43262 7.80225C7.63037 7.61182 7.72559 7.39209 7.72559 7.14307Z" fill="#696969"/>
</svg>
