<svg width="16" height="15" viewBox="0 0 16 15" fill="none" xmlns="http://www.w3.org/2000/svg">
<path d="M2.36182 14.7505H13.8535C14.9888 14.7505 15.7212 13.9082 15.7212 12.8755C15.7212 12.5679 15.6406 12.2529 15.4795 11.96L9.72266 1.67676C9.37109 1.03955 8.74121 0.717285 8.11133 0.717285C7.48145 0.717285 6.84424 1.03955 6.49268 1.67676L0.743164 11.96C0.582031 12.2603 0.494141 12.5679 0.494141 12.8755C0.494141 13.9082 1.22656 14.7505 2.36182 14.7505ZM8.11865 9.71143C7.68652 9.71143 7.4375 9.46973 7.42285 9.0376L7.32031 5.37549C7.30566 4.92139 7.62793 4.60645 8.11133 4.60645C8.58008 4.60645 8.92432 4.92871 8.90967 5.38281L8.79248 9.03027C8.77783 9.47705 8.53613 9.71143 8.11865 9.71143ZM8.11865 12.2456C7.62061 12.2456 7.21045 11.8867 7.21045 11.4033C7.21045 10.9199 7.61328 10.561 8.11865 10.561C8.6167 10.561 9.01953 10.9199 9.01953 11.4033C9.01953 11.894 8.60938 12.2456 8.11865 12.2456Z" fill="#F8CD46"/>
</svg>
