<svg width="30" height="24" viewBox="0 0 30 24" fill="none" xmlns="http://www.w3.org/2000/svg">
<path d="M7.08984 21.8613C7.5 21.8613 7.80273 21.6758 8.29102 21.2266L11.0547 18.6777C10.5078 18.2285 10.0391 17.4961 10.0391 15.9629V9.13672C10.0391 6.06055 11.9238 4.21484 14.9902 4.21484H22.002L21.9922 3.91211C21.8164 1.95898 20.5176 0.660156 18.2129 0.660156H4.64844C2.31445 0.660156 0.839844 2.01758 0.839844 4.40039V14.166C0.839844 16.5195 2.29492 17.9746 4.58008 17.9746H6.15234V20.8066C6.15234 21.4512 6.50391 21.8613 7.08984 21.8613ZM23.4668 23.2578C24.0527 23.2578 24.3945 22.8477 24.3945 22.2031V19.3711H25.4102C27.7051 19.3711 29.1602 17.916 29.1602 15.5625V9.38086C29.1602 6.99805 27.6855 5.64062 25.3516 5.64062H15.2734C12.8516 5.64062 11.4648 6.99805 11.4648 9.41016V15.5625C11.4648 17.9355 12.8613 19.3711 15.2734 19.3711H18.6719L22.2656 22.623C22.7539 23.0625 23.0566 23.2578 23.4668 23.2578Z" fill="#191919"/>
</svg>
