<svg width="14" height="17" viewBox="0 0 14 17" fill="none" xmlns="http://www.w3.org/2000/svg">
<path d="M3.25537 16.6514H11.063C12.6377 16.6514 13.4507 15.8237 13.4507 14.2417V7.68652H7.95752C7.04199 7.68652 6.60254 7.24707 6.60254 6.33154V0.779785H3.25537C1.68799 0.779785 0.867676 1.60742 0.867676 3.19678V14.2417C0.867676 15.8237 1.68799 16.6514 3.25537 16.6514ZM8.09668 6.61719H13.3774C13.3335 6.28027 13.0918 5.96533 12.7109 5.57715L8.70459 1.51953C8.33838 1.146 8.00879 0.896973 7.67188 0.853027V6.19238C7.6792 6.47803 7.81836 6.61719 8.09668 6.61719ZM4.31738 10.9312C4.00244 10.9312 3.77539 10.7041 3.77539 10.4111C3.77539 10.1182 4.00244 9.89111 4.31738 9.89111H10.0229C10.3232 9.89111 10.5576 10.1182 10.5576 10.4111C10.5576 10.7041 10.3232 10.9312 10.0229 10.9312H4.31738ZM4.31738 13.6777C4.00244 13.6777 3.77539 13.4507 3.77539 13.1577C3.77539 12.8647 4.00244 12.6377 4.31738 12.6377H10.0229C10.3232 12.6377 10.5576 12.8647 10.5576 13.1577C10.5576 13.4507 10.3232 13.6777 10.0229 13.6777H4.31738Z" fill="#EF6212"/>
</svg>
