<svg width="23" height="19" viewBox="0 0 23 19" fill="none" xmlns="http://www.w3.org/2000/svg">
<path d="M8.39453 9.5C8.39453 9.91992 8.74609 10.2715 9.15625 10.2715H19.1855L20.6504 10.2129L19.957 10.877L18.375 12.3516C18.2188 12.4883 18.1406 12.6934 18.1406 12.8789C18.1406 13.2891 18.4336 13.5918 18.834 13.5918C19.0391 13.5918 19.1953 13.5137 19.3418 13.3672L22.5254 10.0664C22.7207 9.87109 22.7891 9.69531 22.7891 9.5C22.7891 9.30469 22.7207 9.12891 22.5254 8.93359L19.3418 5.63281C19.1953 5.48633 19.0391 5.39844 18.834 5.39844C18.4336 5.39844 18.1406 5.70117 18.1406 6.10156C18.1406 6.29688 18.2188 6.50195 18.375 6.63867L19.957 8.12305L20.6504 8.78711L19.1855 8.71875H9.15625C8.74609 8.71875 8.39453 9.08008 8.39453 9.5ZM0.748047 3.89453V15.0957C0.748047 17.1367 1.76367 18.1621 3.77539 18.1621H13.5215C15.5332 18.1621 16.5488 17.1367 16.5488 15.0957V12.3711H14.9766L14.9766 15.0664C14.9766 16.0332 14.4492 16.5898 13.4336 16.5898H3.86328C2.84766 16.5898 2.32031 16.0332 2.32031 15.0664V3.91406C2.32031 2.9375 2.84766 2.40039 3.86328 2.40039H13.4336C14.4492 2.40039 14.9766 2.9375 14.9766 3.91406V6.61914H16.5488V3.89453C16.5488 1.85352 15.5332 0.828125 13.5215 0.828125L3.77539 0.828125C1.76367 0.828125 0.748047 1.85352 0.748047 3.89453Z" fill="#191919"/>
</svg>
