<svg width="20" height="19" viewBox="0 0 20 19" fill="none" xmlns="http://www.w3.org/2000/svg">
<path d="M3.97949 18.6973C4.33984 18.9786 4.79688 18.8819 5.3418 18.4864L9.99121 15.0674L14.6494 18.4864C15.1943 18.8819 15.6426 18.9786 16.0117 18.6973C16.3721 18.4249 16.4512 17.9766 16.2314 17.335L14.3945 11.8682L19.0879 8.49323C19.6328 8.10651 19.8525 7.70221 19.7119 7.26276C19.5713 6.84088 19.1582 6.62994 18.4814 6.63873L12.7246 6.67389L10.9756 1.18073C10.7646 0.530334 10.4482 0.205139 9.99121 0.205139C9.54297 0.205139 9.22656 0.530334 9.01562 1.18073L7.2666 6.67389L1.50977 6.63873C0.833008 6.62994 0.419922 6.84088 0.279297 7.26276C0.129883 7.70221 0.358398 8.10651 0.90332 8.49323L5.59668 11.8682L3.75977 17.335C3.54004 17.9766 3.61914 18.4249 3.97949 18.6973Z" fill="#E0E0E0"/>
</svg>
