<?xml version="1.0" encoding="iso-8859-1"?>
<!-- Generator: Adobe Illustrator 19.0.0, SVG Export Plug-In . SVG Version: 6.00 Build 0)  -->
<svg version="1.1" id="Layer_1" xmlns="http://www.w3.org/2000/svg" xmlns:xlink="http://www.w3.org/1999/xlink" x="0px" y="0px"
	 viewBox="0 0 501.551 501.551" style="enable-background:new 0 0 501.551 501.551;" xml:space="preserve">
<g>
	<path style="fill:#FFD15C;" d="M27.167,362.71v64.784c0,24.033,18.808,42.841,42.841,42.841h361.535
		c22.988,0,42.841-18.808,42.841-42.841V362.71H27.167z"/>
	<path style="fill:#FFD15C;" d="M473.339,89.992c-78.367-78.367-367.804-78.367-446.171,0
		c-15.673,15.673-12.539,62.694-8.359,100.31h462.89C486.922,152.686,489.012,105.665,473.339,89.992z"/>
</g>
<g>
	<path style="fill:#FF7058;" d="M474.384,238.367H26.122c-7.314,0-12.539,6.269-12.539,13.584s6.269,13.584,12.539,13.584h448.261
		c7.314,0,12.539-6.269,12.539-13.584C487.967,244.637,481.698,238.367,474.384,238.367z"/>
	<path style="fill:#FF7058;" d="M477.518,314.645H25.078c-13.584,0-24.033,10.449-24.033,24.033s10.449,24.033,24.033,24.033
		h452.441c13.584,0,24.033-10.449,24.033-24.033S491.102,314.645,477.518,314.645z"/>
</g>
<path style="fill:#F1543F;" d="M477.518,265.535H25.078c-13.584,0-24.033,10.449-24.033,24.033l0,0
	c0,13.584,10.449,24.033,24.033,24.033h452.441c13.584,0,24.033-10.449,24.033-24.033l0,0
	C501.551,277.029,491.102,265.535,477.518,265.535z"/>
<path style="fill:#4CDBC4;" d="M476.473,190.302H24.033C10.449,190.302,0,200.751,0,214.335l0,0
	c0,10.449,7.314,19.853,16.718,22.988c2.09,1.045,5.224,1.045,7.314,1.045h6.269c10.449,3.135,18.808,7.314,27.167,15.673l0,0
	c20.898,22.988,56.424,22.988,77.322,0l0,0c7.314-8.359,16.718-12.539,27.167-15.673h24.033c9.404,2.09,18.808,7.314,27.167,15.673
	c20.898,22.988,56.424,22.988,77.322,0c7.314-8.359,16.718-12.539,27.167-15.673h21.943c9.404,2.09,18.808,7.314,27.167,15.673l0,0
	c20.898,22.988,56.424,22.988,77.322,0c7.314-8.359,16.718-12.539,26.122-15.673h6.269c3.135,0,5.224-1.045,7.314-1.045
	c9.404-3.135,16.718-12.539,16.718-22.988l0,0C500.506,200.751,490.057,190.302,476.473,190.302z"/>
<rect x="27.167" y="362.71" style="fill:#F8B64C;" width="446.171" height="15.673"/>
<g>
	<path style="fill:#F2F2F2;" d="M393.927,134.922l-10.449,1.045c-2.09,0-3.135,2.09-3.135,3.135s0,2.09,1.045,2.09
		c1.045,1.045,1.045,1.045,2.09,1.045l10.449-1.045c2.09,0,3.135-2.09,3.135-3.135C398.106,137.012,396.016,134.922,393.927,134.922
		z"/>
	<path style="fill:#F2F2F2;" d="M201.665,49.241c-1.045-1.045-3.135-1.045-5.224,0c-1.045,1.045-1.045,3.135,0,5.224l7.314,7.314
		c1.045,1.045,1.045,1.045,2.09,1.045c1.045,0,2.09,0,2.09-1.045c1.045-1.045,1.045-3.135,0-5.224L201.665,49.241z"/>
	<path style="fill:#F2F2F2;" d="M416.914,96.261l-7.314,7.314c-1.045,1.045-1.045,3.135,0,5.224c1.045,1.045,1.045,1.045,2.09,1.045
		c1.045,0,2.09,0,2.09-1.045l7.314-7.314c1.045-1.045,1.045-3.135,0-5.224C420.049,95.216,417.959,95.216,416.914,96.261z"/>
	<path style="fill:#F2F2F2;" d="M53.29,103.576l-7.314,7.314c-1.045,1.045-1.045,3.135,0,5.224c1.045,1.045,1.045,1.045,2.09,1.045
		c1.045,0,2.09,0,2.09-1.045l7.314-7.314c1.045-1.045,1.045-3.135,0-5.224C57.469,102.531,55.38,102.531,53.29,103.576z"/>
	<path style="fill:#F2F2F2;" d="M331.233,102.531l-10.449,1.045c-2.09,0-3.135,2.09-3.135,3.135c0,2.09,2.09,3.135,3.135,3.135l0,0
		l10.449-1.045c2.09,0,3.135-2.09,3.135-3.135C334.367,103.576,333.322,102.531,331.233,102.531z"/>
	<path style="fill:#F2F2F2;" d="M358.4,161.045l-10.449,1.045c-2.09,0-3.135,2.09-3.135,3.135c0,2.09,2.09,3.135,3.135,3.135l0,0
		l10.449-1.045c2.09,0,3.135-2.09,3.135-3.135C361.535,162.09,359.445,161.045,358.4,161.045z"/>
	<path style="fill:#F2F2F2;" d="M110.759,73.273l-10.449,1.045c-2.09,0-3.135,2.09-3.135,3.135c0,2.09,2.09,3.135,3.135,3.135l0,0
		l10.449-1.045c2.09,0,3.135-2.09,3.135-3.135C114.939,75.363,112.849,73.273,110.759,73.273z"/>
	<path style="fill:#F2F2F2;" d="M187.037,108.8c1.045-1.045,1.045-3.135,0-5.224c-1.045-1.045-3.135-1.045-5.224,0l-7.314,7.314
		c-1.045,1.045-1.045,3.135,0,5.224c1.045,1.045,1.045,1.045,2.09,1.045c1.045,0,2.09,0,2.09-1.045L187.037,108.8z"/>
	<path style="fill:#F2F2F2;" d="M227.788,171.494c1.045,0,2.09,0,2.09-1.045c1.045-1.045,1.045-3.135,0-5.224l-7.314-7.314
		c-1.045-1.045-3.135-1.045-5.224,0c-1.045,1.045-1.045,3.135,0,5.224l7.314,7.314C225.698,171.494,226.743,171.494,227.788,171.494
		z"/>
	<path style="fill:#F2F2F2;" d="M101.355,164.18c1.045,0,2.09,0,2.09-1.045c1.045-1.045,1.045-3.135,0-5.224l-7.314-7.314
		c-1.045-1.045-3.135-1.045-5.224,0c-1.045,1.045-1.045,3.135,0,5.224l7.314,7.314C99.265,164.18,100.31,164.18,101.355,164.18z"/>
	<path style="fill:#F2F2F2;" d="M312.424,49.241c-1.045-1.045-3.135-1.045-5.224,0l-7.314,7.314c-1.045,1.045-1.045,3.135,0,5.224
		c1.045,1.045,1.045,1.045,2.09,1.045c1.045,0,2.09,0,2.09-1.045l7.314-7.314C313.469,52.376,313.469,50.286,312.424,49.241z"/>
	<path style="fill:#F2F2F2;" d="M456.62,150.596c-1.045-1.045-3.135-1.045-5.224,0l-7.314,8.359c-1.045,1.045-1.045,3.135,0,5.225
		c1.045,1.045,1.045,1.045,2.09,1.045c1.045,0,2.09,0,2.09-1.045l7.314-7.314C457.665,154.776,457.665,152.686,456.62,150.596z"/>
</g>
<g>
</g>
<g>
</g>
<g>
</g>
<g>
</g>
<g>
</g>
<g>
</g>
<g>
</g>
<g>
</g>
<g>
</g>
<g>
</g>
<g>
</g>
<g>
</g>
<g>
</g>
<g>
</g>
<g>
</g>
</svg>
