<svg width="30" height="27" viewBox="0 0 30 27" fill="none" xmlns="http://www.w3.org/2000/svg">
<path d="M0.667969 12.9531C0.667969 13.5625 1.13672 14.0898 1.88672 14.0898C2.25 14.0898 2.57812 13.8906 2.87109 13.6562L14.4961 3.89453C14.8242 3.61328 15.1992 3.61328 15.5273 3.89453L27.1406 13.6562C27.4219 13.8906 27.75 14.0898 28.1133 14.0898C28.8047 14.0898 29.332 13.6562 29.332 12.9766C29.332 12.5781 29.1797 12.2617 28.875 12.0039L25.582 9.23828V4.36328C25.582 3.83594 25.2422 3.50781 24.7148 3.50781H23.0977C22.582 3.50781 22.2305 3.83594 22.2305 4.36328V6.41406L16.6758 1.75C15.6562 0.894531 14.3672 0.894531 13.3477 1.75L1.13672 12.0039C0.820312 12.2617 0.667969 12.6133 0.667969 12.9531ZM4.47656 23.4883C4.47656 25.1758 5.53125 26.1953 7.27734 26.1953H22.7344C24.4688 26.1953 25.5352 25.1758 25.5352 23.4883V14.582L15.7266 6.36719C15.2695 5.96875 14.7188 5.98047 14.2734 6.36719L4.47656 14.582V23.4883ZM18.082 23.9922H11.9297V16.4922C11.9297 15.9414 12.293 15.5898 12.8438 15.5898H17.1797C17.7305 15.5898 18.082 15.9414 18.082 16.4922V23.9922Z" fill="#191919"/>
</svg>
