<svg width="16" height="16" viewBox="0 0 16 16" fill="none" xmlns="http://www.w3.org/2000/svg">
<path d="M0.749023 8.1543C0.749023 8.58496 1.10938 8.93652 1.53125 8.93652H7.21777V14.623C7.21777 15.0449 7.56934 15.4053 8 15.4053C8.43066 15.4053 8.79102 15.0449 8.79102 14.623V8.93652H14.4688C14.8906 8.93652 15.251 8.58496 15.251 8.1543C15.251 7.72363 14.8906 7.36328 14.4688 7.36328H8.79102V1.68555C8.79102 1.26367 8.43066 0.90332 8 0.90332C7.56934 0.90332 7.21777 1.26367 7.21777 1.68555V7.36328H1.53125C1.10938 7.36328 0.749023 7.72363 0.749023 8.1543Z" fill="#696969"/>
</svg>
