<svg width="1024" height="1024" viewBox="0 0 1024 1024" fill="none" xmlns="http://www.w3.org/2000/svg">
<rect width="1024" height="1024" rx="10" fill="#FF7B30"/>
<g clip-path="url(#clip0_1539_43069)">
<path d="M262.102 778.97C257.502 773.672 255.202 766.762 255.202 757.779V679H234.961C202.991 679 177.691 669.556 159.06 650.668C140.43 631.78 131 606.211 131 573.502V302.616C131 269.446 140.43 243.878 159.52 225.681C178.611 207.483 204.141 198.5 236.571 198.5H589.166C610.326 198.5 628.727 202.186 643.907 209.787C659.087 217.388 670.817 227.984 679.097 241.575C687.377 255.165 692.437 270.828 694.047 289.026V297.088H500.155C471.864 297.088 447.484 302.616 426.784 313.442C406.314 324.269 390.443 339.932 379.403 360.433C368.363 380.934 362.843 405.12 362.843 433.452V623.257C362.843 644.449 365.603 660.573 371.353 672.09C377.103 683.607 383.543 692.36 390.903 698.119L314.312 768.835C307.642 775.054 301.892 779.431 296.832 782.195C291.772 784.959 286.482 786.341 280.962 786.341C272.912 786.341 266.472 783.808 261.872 778.51L262.102 778.97Z" fill="#FFA36E"/>
<path d="M719.118 821.354C714.288 818.59 708.538 813.983 701.637 807.994L602.046 718.159H507.745C474.394 718.159 448.404 708.715 430.234 689.827C412.064 670.938 402.634 645.14 402.634 612.431V441.514C402.634 408.114 411.834 382.316 430.234 364.118C448.634 345.921 474.394 336.938 507.745 336.938H787.199C819.399 336.938 845.159 345.921 864.25 364.118C883.34 382.085 893 407.654 893 440.823V612.661C893 645.14 883.57 670.938 864.71 689.827C845.849 708.715 820.549 718.159 789.039 718.159H760.748V796.707C760.748 805.46 758.448 812.37 754.078 817.668C749.478 822.966 743.268 825.73 735.218 825.73C729.468 825.73 724.178 824.348 719.348 821.584L719.118 821.354Z" fill="white"/>
<path d="M529.135 581.104C529.135 584.328 527.985 585.02 524.535 585.25L477.614 586.632C473.704 586.632 472.554 585.25 472.324 580.413L470.944 486.201C470.944 482.976 472.094 482.285 475.544 482.285H490.495C493.715 482.285 495.095 483.207 495.095 486.201L496.015 565.44L524.765 564.519C527.985 564.519 529.365 565.44 529.365 568.435V580.873L529.135 581.104ZM536.955 491.269C536.955 486.432 538.335 485.05 542.245 485.05H555.125C559.036 485.05 560.416 486.432 560.416 491.269V521.444H568.466V489.887C568.466 485.05 569.846 483.668 573.756 483.668H586.636C590.546 483.668 591.926 485.05 591.926 489.887V574.884C591.926 579.722 590.776 581.104 586.636 581.104H573.756C569.846 581.104 568.466 579.722 568.466 574.884V542.175H560.416V576.266C560.416 581.104 559.266 582.486 555.125 582.486H542.245C538.335 582.486 536.955 581.104 536.955 576.266V491.269Z" fill="#EF6212"/>
<path d="M618.146 511.079H607.336C604.116 511.539 602.736 510.618 602.736 507.393V494.494C602.736 491.269 603.886 490.578 607.336 490.578L636.777 489.887C641.147 489.887 642.527 491.269 642.067 496.106L636.086 572.12C635.626 576.957 634.936 578.339 630.796 578.339H618.606C614.696 578.339 612.856 576.957 613.316 572.12L617.916 511.079H618.146ZM660.927 503.477H651.037C647.817 503.938 646.437 503.017 646.437 499.792V486.892C646.437 483.668 647.587 482.977 651.037 482.977L679.787 482.285C684.157 482.285 685.537 483.668 685.077 488.505L682.547 521.675H695.197V491.269C695.197 486.432 696.577 485.05 700.487 485.05H713.368C717.278 485.05 718.658 486.432 718.658 491.269V576.266C718.658 581.104 717.508 582.486 713.368 582.486H700.487C696.577 582.486 695.197 581.104 695.197 576.266V542.406H680.937L678.177 579.031C677.717 583.868 677.027 585.25 672.887 585.25H660.007C656.097 585.25 654.257 583.868 654.717 579.031L660.927 503.477Z" fill="#EF6212"/>
<path d="M760.058 503.938V538.259L819.169 537.338C823.079 537.338 823.769 538.49 823.769 542.866V553.001C823.769 557.378 823.079 558.53 819.169 558.53L792.718 558.99V567.744L821.929 567.283C825.149 567.283 826.529 568.204 826.529 571.199V584.098C826.529 587.323 825.379 588.014 821.929 588.014L740.278 589.396C737.058 589.396 735.678 588.475 735.678 585.48V572.581C735.678 569.356 736.828 568.665 740.278 568.665L769.488 568.204V559.451L742.118 559.912C738.208 559.912 737.058 558.069 736.828 553.693L735.908 489.657C735.908 484.819 737.058 483.437 741.198 483.437L821.239 482.055C825.149 482.055 825.839 482.746 825.839 487.583V497.028C825.839 501.865 825.379 502.325 821.239 502.556L760.058 503.708V503.938Z" fill="#EF6212"/>
</g>
<defs>
<clipPath id="clip0_1539_43069">
<rect width="762" height="627" fill="white" transform="translate(131 198.5)"/>
</clipPath>
</defs>
</svg>
