<?xml version="1.0" ?><svg height="24px" version="1.1" viewBox="0 0 24 24" width="24px" xmlns="http://www.w3.org/2000/svg" xmlns:xlink="http://www.w3.org/1999/xlink"><title/><desc/><g fill="none" fill-rule="evenodd" id="Log-Out" stroke="none" stroke-width="1"><g id="Icon-Go-Copy" stroke="#2E308A" stroke-linecap="round" stroke-linejoin="round" stroke-width="2" transform="translate(2.000000, 2.000000)"><g id="Arrow" transform="translate(15.750000, 9.375000) rotate(-90.000000) translate(-15.750000, -9.375000) translate(13.250000, 4.875000)"><line id="Line-6" x1="2.5" x2="2.5" y1="1.16573418e-14" y2="7.5"/><path d="M5,6.60928839 C3.33333333,8.03642946 2.5,8.75 2.5,8.75 C2.5,8.75 1.66666667,8.03642946 0,6.60928839" id="Line-7"/></g></g><g id="Group" transform="translate(2.000000, 2.000000)"><path d="M1.47709815,4.76661369 C0.540320856,6.28896748 0,8.08138439 0,10 C0,15.5228475 4.4771525,20 10,20 C12.8536705,20 15.4281595,18.8046821 17.2500969,16.8874164 M17.2221578,3.08330082 C17.01448,2.86650978 16.7971371,2.65905177 16.5708213,2.4616191 C14.8135081,0.928579322 12.5151947,0 10,0 C9.20450662,0 8.43070787,0.0928857134 7.68885787,0.268403002" id="Shape" stroke="#2E308A" stroke-linecap="round" stroke-linejoin="round" stroke-width="2"/><circle cx="4" cy="2" fill="#2E308A" id="Oval" r="1"/></g></g></svg>