<svg width="18" height="16" viewBox="0 0 18 16" fill="none" xmlns="http://www.w3.org/2000/svg">
<path d="M5.25488 15.9297C5.5625 15.9297 5.78955 15.7832 6.15576 15.4536L8.8584 13.0146L13.6484 13.022C15.853 13.022 17.0908 11.7476 17.0908 9.57227V3.88135C17.0908 1.70605 15.853 0.431641 13.6484 0.431641H4.31006C2.11279 0.431641 0.867676 1.70605 0.867676 3.88135V9.57227C0.867676 11.7549 2.14941 13.0146 4.25879 13.0146H4.55176V15.1387C4.55176 15.6221 4.80811 15.9297 5.25488 15.9297ZM5.37207 5.96143C5.37207 5.06055 6.05322 4.41602 6.96875 4.41602C7.97217 4.41602 8.63135 5.229 8.63135 6.26904C8.63135 8.06348 7.1665 9.01562 6.37549 9.01562C6.15576 9.01562 5.9873 8.86914 5.9873 8.66406C5.9873 8.48828 6.0752 8.36377 6.33887 8.29785C6.89551 8.15869 7.44482 7.74854 7.68652 7.17725H7.59863C7.40088 7.41162 7.08594 7.48486 6.75635 7.48486C5.91406 7.48486 5.37207 6.82568 5.37207 5.96143ZM9.38574 5.96143C9.38574 5.06055 10.0669 4.41602 10.9751 4.41602C11.9785 4.41602 12.645 5.229 12.645 6.26904C12.645 8.06348 11.1875 9.01562 10.3892 9.01562C10.1694 9.01562 10.0083 8.86914 10.0083 8.66406C10.0083 8.48828 10.0962 8.36377 10.3525 8.29785C10.9092 8.15869 11.4585 7.74854 11.7002 7.17725H11.6123C11.4146 7.41162 11.0996 7.48486 10.7627 7.48486C9.92773 7.48486 9.38574 6.82568 9.38574 5.96143Z" fill="#2F7CF6"/>
</svg>
