<svg width="24" height="5" viewBox="0 0 24 5" fill="none" xmlns="http://www.w3.org/2000/svg">
<path d="M5.67188 2.55078C5.67188 1.25 4.61719 0.207031 3.29297 0.207031C2.00391 0.207031 0.949219 1.25 0.949219 2.55078C0.949219 3.85156 2.00391 4.89453 3.29297 4.89453C4.61719 4.89453 5.67188 3.85156 5.67188 2.55078ZM14.3438 2.55078C14.3438 1.25 13.3008 0.207031 12 0.207031C10.7109 0.207031 9.66797 1.25 9.66797 2.55078C9.66797 3.85156 10.7109 4.89453 12 4.89453C13.3008 4.89453 14.3438 3.85156 14.3438 2.55078ZM23.0508 2.55078C23.0508 1.25 22.0078 0.207031 20.707 0.207031C19.3828 0.207031 18.3398 1.25 18.3398 2.55078C18.3398 3.85156 19.3828 4.89453 20.707 4.89453C22.0078 4.89453 23.0508 3.85156 23.0508 2.55078Z" fill="#E0E0E0"/>
</svg>
