<svg width="44" height="38" viewBox="0 0 44 38" fill="none" xmlns="http://www.w3.org/2000/svg">
<path d="M26.2651 33.7683C25.9762 33.6009 25.6322 33.3219 25.2195 32.9593L19.262 27.5191H13.621C11.626 27.5191 10.0713 26.9472 8.98434 25.8034C7.89742 24.6595 7.33331 23.0972 7.33331 21.1165V10.7662C7.33331 8.74361 7.88366 7.18131 8.98434 6.07933C10.085 4.97735 11.626 4.43333 13.621 4.43333H30.3377C32.2639 4.43333 33.8049 4.97735 34.9468 6.07933C36.0888 7.16736 36.6666 8.71571 36.6666 10.7244V21.1304C36.6666 23.0972 36.1025 24.6595 34.9743 25.8034C33.8461 26.9472 32.3327 27.5191 30.4478 27.5191H28.7555V32.2757C28.7555 32.8058 28.6179 33.2243 28.3565 33.5451C28.0813 33.8659 27.7098 34.0333 27.2282 34.0333C26.8843 34.0333 26.5678 33.9496 26.2789 33.7823L26.2651 33.7683Z" fill="#FF7B30"/>
<path d="M15.5823 18.9116C15.5823 19.1019 15.5159 19.1427 15.3166 19.1563L12.6073 19.2379C12.3815 19.2379 12.3151 19.1563 12.3019 18.8709L12.2222 13.3113C12.2222 13.121 12.2886 13.0803 12.4878 13.0803H13.3511C13.537 13.0803 13.6167 13.1346 13.6167 13.3113L13.6698 17.9873L15.3299 17.9329C15.5159 17.9329 15.5955 17.9873 15.5955 18.164V18.898L15.5823 18.9116ZM16.0338 13.6104C16.0338 13.3249 16.1135 13.2434 16.3393 13.2434H17.083C17.3088 13.2434 17.3885 13.3249 17.3885 13.6104V15.3911H17.8533V13.5288C17.8533 13.2434 17.933 13.1618 18.1588 13.1618H18.9025C19.1283 13.1618 19.208 13.2434 19.208 13.5288V18.5446C19.208 18.8301 19.1416 18.9116 18.9025 18.9116H18.1588C17.933 18.9116 17.8533 18.8301 17.8533 18.5446V16.6144H17.3885V18.6262C17.3885 18.9116 17.3221 18.9932 17.083 18.9932H16.3393C16.1135 18.9932 16.0338 18.9116 16.0338 18.6262V13.6104Z" fill="white"/>
<path d="M20.722 14.7794H20.0978C19.9118 14.8066 19.8322 14.7522 19.8322 14.5619V13.8007C19.8322 13.6104 19.8986 13.5696 20.0978 13.5696L21.7977 13.5288C22.0501 13.5288 22.1298 13.6104 22.1032 13.8958L21.7579 18.3815C21.7313 18.667 21.6915 18.7485 21.4524 18.7485H20.7485C20.5228 18.7485 20.4165 18.667 20.4431 18.3815L20.7087 14.7794H20.722ZM23.1923 14.3308H22.6212C22.4352 14.358 22.3555 14.3036 22.3555 14.1133V13.3521C22.3555 13.1618 22.422 13.121 22.6212 13.121L24.2813 13.0803C24.5336 13.0803 24.6133 13.1618 24.5868 13.4473L24.4407 15.4047H25.1711V13.6104C25.1711 13.3249 25.2508 13.2434 25.4766 13.2434H26.2203C26.4461 13.2434 26.5258 13.3249 26.5258 13.6104V18.6262C26.5258 18.9116 26.4594 18.9932 26.2203 18.9932H25.4766C25.2508 18.9932 25.1711 18.9116 25.1711 18.6262V16.628H24.3477L24.1883 18.7893C24.1618 19.0748 24.1219 19.1563 23.8829 19.1563H23.1391C22.9133 19.1563 22.8071 19.0748 22.8337 18.7893L23.1923 14.3308Z" fill="white"/>
<path d="M28.9165 14.358V16.3833L32.3297 16.329C32.5555 16.329 32.5953 16.3969 32.5953 16.6552V17.2533C32.5953 17.5116 32.5555 17.5795 32.3297 17.5795L30.8024 17.6067V18.1232L32.489 18.0961C32.675 18.0961 32.7547 18.1504 32.7547 18.3271V19.0883C32.7547 19.2786 32.6883 19.3194 32.489 19.3194L27.7743 19.401C27.5884 19.401 27.5087 19.3466 27.5087 19.1699V18.4087C27.5087 18.2184 27.5751 18.1776 27.7743 18.1776L29.461 18.1504V17.6339L27.8805 17.6611C27.6548 17.6611 27.5884 17.5523 27.5751 17.2941L27.5219 13.5152C27.5219 13.2298 27.5884 13.1482 27.8274 13.1482L32.4492 13.0667C32.675 13.0667 32.7148 13.1074 32.7148 13.3929V13.9502C32.7148 14.2357 32.6883 14.2628 32.4492 14.2764L28.9165 14.3444V14.358Z" fill="white"/>
</svg>
