<svg width="24" height="24" viewBox="0 0 24 24" fill="none" xmlns="http://www.w3.org/2000/svg">
<path d="M3.37402 0.835938C4.21191 1.30859 4.48047 1.94238 4.48047 3.0918V20.8486C4.48047 22.3633 5.35059 23.2334 6.67188 23.2334C7.89648 23.2334 8.71289 22.3955 8.71289 20.9346V17.9697C8.71289 16.5088 9.37891 15.7568 10.8506 15.7568H21.1953V4.20898C21.1953 1.96387 20.0781 0.835938 17.8652 0.835938H3.37402ZM0.591797 6.03516C0.591797 6.67969 1.02148 7.09863 1.6875 7.09863H3.01953V3.62891C3.01953 2.95215 2.4502 2.44727 1.80566 2.44727C1.16113 2.43652 0.591797 2.94141 0.591797 3.62891V6.03516ZM8.62695 6.44336C8.62695 6.07812 8.91699 5.78809 9.30371 5.78809H16.6943C17.0811 5.78809 17.3604 6.07812 17.3604 6.44336C17.3604 6.81934 17.0811 7.10938 16.6943 7.10938H9.30371C8.91699 7.10938 8.62695 6.81934 8.62695 6.44336ZM8.62695 10.2139C8.62695 9.83789 8.91699 9.53711 9.30371 9.53711H13.1602C13.5469 9.53711 13.8262 9.83789 13.8262 10.2139C13.8262 10.5791 13.5469 10.8584 13.1602 10.8584H9.30371C8.91699 10.8584 8.62695 10.5791 8.62695 10.2139ZM9.15332 23.6523H20.0137C22.0547 23.6523 23.3975 22.2559 23.3975 20.1396V18.292C23.3975 17.6475 22.9678 17.2178 22.3018 17.2178H11.2803C10.6143 17.2178 10.1738 17.6475 10.1738 18.292V20.3975C10.1738 21.6328 10.0127 22.7285 9.15332 23.6523Z" fill="#E0E0E0"/>
</svg>
