<?xml version="1.0" ?><svg id="Layer_2" style="enable-background:new 0 0 32 32;" version="1.1" viewBox="0 0 32 32" xml:space="preserve" xmlns="http://www.w3.org/2000/svg" xmlns:xlink="http://www.w3.org/1999/xlink"><g><path d="M13.62598,13.38184l-0.19336,3.60742c-0.02246,0.42529,0.13672,0.84033,0.43848,1.1416   c0.28223,0.28174,0.66309,0.43848,1.05957,0.43848c0.02734,0,0.05469-0.00098,0.08301-0.00244l3.60156-0.19922   c0.36816-0.02002,0.71582-0.17578,0.97754-0.43652L31.06055,6.47559C31.3418,6.19434,31.5,5.81299,31.5,5.41504   S31.3418,4.63525,31.06055,4.354l-3.41406-3.41455C27.36523,0.6582,26.9834,0.5,26.58594,0.5s-0.7793,0.1582-1.06055,0.43945   L14.06348,12.40137C13.80176,12.66309,13.64551,13.01221,13.62598,13.38184z M16.59082,14.11621l9.99512-9.99463l1.29199,1.29248   l-10.00098,9.98975l-1.35938,0.0752L16.59082,14.11621z"/><path d="M5.56445,31.5h16.63477c2.79297,0,5.06445-2.27197,5.06445-5.06445V16.18115c0-0.82861-0.67188-1.5-1.5-1.5   s-1.5,0.67139-1.5,1.5v10.25439c0,1.13818-0.92578,2.06445-2.06445,2.06445H5.56445C4.42578,28.5,3.5,27.57373,3.5,26.43555   V9.80078c0-1.13818,0.92578-2.06445,2.06445-2.06445h10.25488c0.82813,0,1.5-0.67139,1.5-1.5s-0.67188-1.5-1.5-1.5H5.56445   C2.77148,4.73633,0.5,7.0083,0.5,9.80078v16.63477C0.5,29.22803,2.77148,31.5,5.56445,31.5z"/></g></svg>