<svg width="21" height="14" viewBox="0 0 21 14" fill="none" xmlns="http://www.w3.org/2000/svg">
<path d="M14.7251 6.646C16.3218 6.646 17.6768 5.2251 17.6768 3.38672C17.6768 1.59229 16.3145 0.222656 14.7251 0.222656C13.1357 0.222656 11.7661 1.61426 11.7734 3.40137C11.7734 5.2251 13.1284 6.646 14.7251 6.646ZM6.2583 6.81445C7.6499 6.81445 8.8291 5.56934 8.8291 3.97266C8.8291 2.40527 7.64258 1.21875 6.2583 1.21875C4.87402 1.21875 3.68018 2.42725 3.6875 3.9873C3.6875 5.56934 4.8667 6.81445 6.2583 6.81445ZM2.22266 13.4575L7.7085 13.4575C6.93213 12.3369 7.78906 10.125 9.43701 8.83594C8.63135 8.30859 7.57666 7.92773 6.2583 7.92773C2.98437 7.92773 0.867676 10.3374 0.867676 12.3296C0.867676 13.0474 1.23389 13.4575 2.22266 13.4575ZM10.1548 13.4575L19.2881 13.4575C20.4893 13.4575 20.9067 13.0913 20.9067 12.4248C20.9067 10.5352 18.519 7.94238 14.7178 7.94238C10.9238 7.94238 8.53613 10.5352 8.53613 12.4248C8.53613 13.0913 8.95361 13.4575 10.1548 13.4575Z" fill="#191919"/>
</svg>
