<svg width="19" height="15" viewBox="0 0 19 15" fill="none" xmlns="http://www.w3.org/2000/svg">
<path d="M3.27002 14.5527L15.8164 14.5527C17.3984 14.5527 18.2187 13.7397 18.2187 12.1797L18.2188 3.25879C18.2188 1.69873 17.3984 0.885742 15.8164 0.885742L3.27002 0.885742C1.68799 0.885742 0.867676 1.69141 0.867676 3.25879L0.867676 12.1797C0.867676 13.7397 1.68799 14.5527 3.27002 14.5527ZM2.30322 3.3833C2.30322 2.67285 2.67676 2.31396 3.35791 2.31396L15.7285 2.31396C16.4023 2.31396 16.7832 2.67285 16.7832 3.3833L16.7832 11.125L13.1138 7.68994C12.7842 7.39697 12.4033 7.24316 12.0151 7.24316C11.6123 7.24316 11.2534 7.38232 10.9165 7.67529L7.61328 10.6343L6.2583 9.41113C5.95068 9.14014 5.61377 8.99365 5.26953 8.99365C4.93262 8.99365 4.63232 9.13281 4.32471 9.40381L2.30322 11.2202L2.30322 3.3833ZM6.54395 7.85107C7.50342 7.85107 8.29443 7.06006 8.29443 6.09326C8.29443 5.13379 7.50342 4.33545 6.54395 4.33545C5.56982 4.33545 4.78613 5.13379 4.78613 6.09326C4.78613 7.06006 5.56982 7.85107 6.54395 7.85107Z" fill="#191919"/>
</svg>
