<svg width="22" height="23" viewBox="0 0 22 23" fill="none" xmlns="http://www.w3.org/2000/svg">
<path d="M20.3867 2.15234C19.1797 0.957031 17.5156 0.710938 15.3711 0.710938H6.59375C4.47266 0.710938 2.80859 0.957031 1.60156 2.16406C0.394531 3.35938 0.171875 5.01172 0.171875 7.13281V15.9102C0.171875 18.0664 0.394531 19.7188 1.60156 20.9141C2.80859 22.1211 4.47266 22.3555 6.61719 22.3555H15.3711C17.5156 22.3555 19.1797 22.1211 20.3867 20.9141C21.5938 19.707 21.8164 18.0664 21.8164 15.9102V7.16797C21.8164 5.01172 21.5938 3.35938 20.3867 2.15234ZM5.33984 11.5508C5.33984 10.8594 5.82031 10.3789 6.51172 10.3789H9.83984V7.03906C9.83984 6.35938 10.3203 5.87891 10.9883 5.87891C11.6797 5.87891 12.1602 6.35938 12.1602 7.03906V10.3789H15.5C16.1797 10.3789 16.6602 10.8594 16.6602 11.5508C16.6602 12.2188 16.168 12.6992 15.5 12.6992H12.1602V16.0391C12.1602 16.707 11.6797 17.1992 10.9883 17.1992C10.3203 17.1992 9.83984 16.707 9.83984 16.0391V12.6992H6.51172C5.83203 12.6992 5.33984 12.2188 5.33984 11.5508Z" fill="#191919"/>
</svg>
