<svg width="22" height="23" viewBox="0 0 22 23" fill="none" xmlns="http://www.w3.org/2000/svg">
<path d="M20.375 2.16406C19.168 0.957031 17.5039 0.722656 15.3711 0.722656H6.58203C4.48438 0.722656 2.80859 0.96875 1.61328 2.16406C0.40625 3.37109 0.183594 5.02344 0.183594 7.13281V15.9102C0.183594 18.0547 0.40625 19.707 1.60156 20.9023C2.82031 22.1094 4.48438 22.3438 6.61719 22.3438H15.3711C17.5039 22.3438 19.168 22.1094 20.375 20.9023C21.582 19.6953 21.8047 18.0547 21.8047 15.9102V7.15625C21.8047 5.02344 21.582 3.35938 20.375 2.16406ZM5.26953 11.5508C5.26953 10.8711 5.75 10.3906 6.42969 10.3906H9.85156V6.95703C9.85156 6.28906 10.3203 5.79688 10.9883 5.79688C11.668 5.79688 12.1484 6.28906 12.1484 6.95703V10.3906H15.582C16.25 10.3906 16.7305 10.8711 16.7305 11.5508C16.7305 12.2188 16.25 12.6875 15.582 12.6875H12.1484V16.1211C12.1484 16.7891 11.668 17.2695 10.9883 17.2695C10.3203 17.2695 9.85156 16.7891 9.85156 16.1211V12.6875H6.42969C5.75 12.6875 5.26953 12.2188 5.26953 11.5508Z" fill="#E0E0E0"/>
</svg>
