<svg width="14" height="17" viewBox="0 0 14 17" fill="none" xmlns="http://www.w3.org/2000/svg">
<path d="M0.311035 10.2393C0.311035 13.8354 3.19678 16.7212 6.78564 16.7212C10.3745 16.7212 13.2529 13.8354 13.2529 10.2393C13.2529 9.8877 13.0039 9.63135 12.645 9.63135C12.3008 9.63135 12.0737 9.8877 12.0737 10.2393C12.0737 13.1836 9.72266 15.542 6.78564 15.542C3.84863 15.542 1.49023 13.1836 1.49023 10.2393C1.49023 7.30225 3.84863 4.95117 6.78564 4.95117C7.34229 4.95117 7.8623 4.99512 8.29443 5.09766L6.10449 7.26563C5.99463 7.38281 5.93604 7.5293 5.93604 7.68311C5.93604 8.02002 6.18506 8.26904 6.51465 8.26904C6.69775 8.26904 6.83691 8.21045 6.93945 8.10059L9.95703 5.06836C10.0889 4.94385 10.1401 4.79736 10.1401 4.62891C10.1401 4.46777 10.0742 4.30664 9.95703 4.18945L6.93945 1.12793C6.83691 1.01074 6.69043 0.952148 6.51465 0.952148C6.18506 0.952148 5.93604 1.21582 5.93604 1.55273C5.93604 1.70654 5.99463 1.85303 6.09717 1.97021L8.04541 3.89648C7.66455 3.82324 7.23242 3.77197 6.78564 3.77197C3.19678 3.77197 0.311035 6.65039 0.311035 10.2393Z" fill="#191919"/>
</svg>
