<svg width="14" height="15" viewBox="0 0 14 15" fill="none" xmlns="http://www.w3.org/2000/svg">
<path d="M7 14.0371C10.8145 14.0371 13.9727 10.8721 13.9727 7.06445C13.9727 3.25 10.8076 0.0917969 6.99316 0.0917969C3.18555 0.0917969 0.0273438 3.25 0.0273438 7.06445C0.0273438 10.8721 3.19238 14.0371 7 14.0371ZM4.9082 10.2979C4.60742 10.2979 4.38184 10.0859 4.38184 9.80566C4.38184 9.66211 4.41602 9.56641 4.50488 9.43652L6.2959 6.96191L4.60742 4.6377C4.49121 4.48047 4.45703 4.38477 4.45703 4.22754C4.45703 3.94043 4.70996 3.70117 5.01074 3.70117C5.25 3.70117 5.38672 3.79004 5.55078 4.01562L7.04785 6.18945H7.08203L8.55859 4.02246C8.70898 3.79004 8.85254 3.70117 9.07129 3.70117C9.37207 3.70117 9.60449 3.91992 9.60449 4.2002C9.60449 4.33008 9.57031 4.44629 9.46777 4.57617L7.69043 6.99609L9.4541 9.40918C9.5498 9.53223 9.59082 9.63477 9.59082 9.77832C9.59082 10.0859 9.35156 10.2979 9.03027 10.2979C8.81152 10.2979 8.68164 10.2158 8.50391 9.96973L6.98633 7.80273H6.95898L5.43457 9.96973C5.25 10.2158 5.13379 10.2979 4.9082 10.2979Z" fill="#E0E0E0"/>
</svg>
