<svg width="20" height="20" viewBox="0 0 20 20" fill="none" xmlns="http://www.w3.org/2000/svg">
<path d="M0.361328 8.17188C0.361328 12.5566 3.92578 16.1211 8.31055 16.1211C9.94141 16.1211 11.4355 15.623 12.6855 14.7734L17.1777 19.2656C17.4512 19.5488 17.832 19.6758 18.2129 19.6758C19.043 19.6758 19.6387 19.0508 19.6387 18.2402C19.6387 17.8496 19.502 17.4883 19.2383 17.2148L14.7754 12.7422C15.7031 11.4629 16.2598 9.88086 16.2598 8.17188C16.2598 3.78711 12.6953 0.222656 8.31055 0.222656C3.92578 0.222656 0.361328 3.78711 0.361328 8.17188ZM2.43164 8.17188C2.43164 4.92969 5.05859 2.29297 8.31055 2.29297C11.5527 2.29297 14.1895 4.92969 14.1895 8.17188C14.1895 11.4141 11.5527 14.0508 8.31055 14.0508C5.05859 14.0508 2.43164 11.4141 2.43164 8.17188Z" fill="#E0E0E0"/>
</svg>
