<svg width="20" height="20" viewBox="0 0 20 20" fill="none" xmlns="http://www.w3.org/2000/svg">
<path d="M9.1123 19.5498H10.8877C11.5645 19.5498 12.083 19.1367 12.2412 18.4863L12.6191 16.8428L12.9004 16.7461L14.333 17.625C14.9043 17.9854 15.5635 17.8975 16.0469 17.4141L17.2773 16.1924C17.7607 15.709 17.8486 15.041 17.4883 14.4785L16.5918 13.0547L16.6973 12.791L18.3408 12.4043C18.9824 12.2461 19.4043 11.7188 19.4043 11.0508V9.31055C19.4043 8.64258 18.9912 8.11523 18.3408 7.95703L16.7148 7.56152L16.6006 7.28027L17.4971 5.85645C17.8574 5.29395 17.7695 4.63477 17.2861 4.14258L16.0557 2.91211C15.5811 2.4375 14.9219 2.34961 14.3506 2.70117L12.918 3.58008L12.6191 3.46582L12.2412 1.82227C12.083 1.17188 11.5645 0.758789 10.8877 0.758789H9.1123C8.43555 0.758789 7.91699 1.17188 7.75879 1.82227L7.37207 3.46582L7.07324 3.58008L5.64941 2.70117C5.07812 2.34961 4.41016 2.4375 3.93555 2.91211L2.71387 4.14258C2.23047 4.63477 2.13379 5.29395 2.50293 5.85645L3.39062 7.28027L3.28516 7.56152L1.65918 7.95703C1.00879 8.11523 0.595703 8.64258 0.595703 9.31055V11.0508C0.595703 11.7188 1.01758 12.2461 1.65918 12.4043L3.30273 12.791L3.39941 13.0547L2.51172 14.4785C2.14258 15.041 2.23926 15.709 2.72266 16.1924L3.94434 17.4141C4.42773 17.8975 5.0957 17.9854 5.66699 17.625L7.09082 16.7461L7.37207 16.8428L7.75879 18.4863C7.91699 19.1367 8.43555 19.5498 9.1123 19.5498ZM9.25293 18.1787C9.10352 18.1787 9.02441 18.1172 8.99805 17.9766L8.4707 15.7969C7.93457 15.665 7.43359 15.4541 7.05566 15.2168L5.13965 16.3945C5.03418 16.4736 4.91992 16.4561 4.81445 16.3506L3.77734 15.3135C3.68066 15.2168 3.67188 15.1113 3.74219 14.9883L4.91992 13.0898C4.71777 12.7207 4.48926 12.2197 4.34863 11.6836L2.16895 11.165C2.02832 11.1387 1.9668 11.0596 1.9668 10.9102V9.44238C1.9668 9.28418 2.01953 9.21387 2.16895 9.1875L4.33984 8.66016C4.48047 8.08887 4.74414 7.57031 4.90234 7.24512L3.7334 5.34668C3.6543 5.21484 3.66309 5.10938 3.75977 5.00391L4.80566 3.98438C4.91113 3.87891 5.00781 3.86133 5.13965 3.94043L7.03809 5.0918C7.41602 4.88086 7.95215 4.66113 8.47949 4.51172L8.99805 2.33203C9.02441 2.19141 9.10352 2.12988 9.25293 2.12988H10.7471C10.8965 2.12988 10.9756 2.19141 10.9932 2.33203L11.5293 4.5293C12.0742 4.66992 12.5488 4.88965 12.9443 5.10059L14.8516 3.94043C14.9922 3.86133 15.0801 3.87891 15.1943 3.98438L16.2314 5.00391C16.3369 5.10938 16.3369 5.21484 16.2578 5.34668L15.0889 7.24512C15.2559 7.57031 15.5107 8.08887 15.6514 8.66016L17.8311 9.1875C17.9717 9.21387 18.0332 9.28418 18.0332 9.44238V10.9102C18.0332 11.0596 17.9629 11.1387 17.8311 11.165L15.6426 11.6836C15.502 12.2197 15.2822 12.7207 15.0713 13.0898L16.249 14.9883C16.3193 15.1113 16.3193 15.2168 16.2139 15.3135L15.1855 16.3506C15.0713 16.4561 14.9658 16.4736 14.8516 16.3945L12.9355 15.2168C12.5576 15.4541 12.0654 15.665 11.5293 15.7969L10.9932 17.9766C10.9756 18.1172 10.8965 18.1787 10.7471 18.1787H9.25293ZM10 13.5117C11.8369 13.5117 13.3486 12 13.3486 10.1543C13.3486 8.32617 11.8369 6.81445 10 6.81445C8.16309 6.81445 6.64258 8.32617 6.64258 10.1543C6.64258 11.9912 8.1543 13.5117 10 13.5117ZM10 12.1494C8.91016 12.1494 8.01367 11.2529 8.01367 10.1543C8.01367 9.07324 8.91016 8.17676 10 8.17676C11.0723 8.17676 11.9688 9.07324 11.9688 10.1543C11.9688 11.2441 11.0723 12.1494 10 12.1494Z" fill="#191919"/>
</svg>
