<svg width="19" height="19" viewBox="0 0 19 19" fill="none" xmlns="http://www.w3.org/2000/svg">
<path d="M11.3447 18.7871C11.9775 18.7871 12.4258 18.2422 12.751 17.3984L18.5078 2.36035C18.666 1.95605 18.7539 1.5957 18.7539 1.29688C18.7539 0.725586 18.4023 0.374023 17.8311 0.374023C17.5322 0.374023 17.1719 0.461914 16.7676 0.620117L1.65039 6.41211C0.912109 6.69336 0.34082 7.1416 0.34082 7.7832C0.34082 8.5918 0.956055 8.86426 1.7998 9.11914L6.5459 10.5605C7.1084 10.7363 7.4248 10.7188 7.80273 10.3672L17.4443 1.3584C17.5586 1.25293 17.6904 1.27051 17.7783 1.34961C17.8662 1.4375 17.875 1.56934 17.7695 1.68359L8.7959 11.3604C8.45312 11.7207 8.42676 12.0195 8.59375 12.6084L9.99121 17.249C10.2549 18.1367 10.5273 18.7871 11.3447 18.7871Z" fill="#191919"/>
</svg>
