<svg width="17" height="17" viewBox="0 0 17 17" fill="none" xmlns="http://www.w3.org/2000/svg">
<path d="M2.82324 0.838379C3.36523 1.13135 3.55566 1.54883 3.55566 2.28857V14.6079C3.55566 15.6187 4.13428 16.1826 4.96924 16.1826C5.76025 16.1826 6.31689 15.6333 6.31689 14.6592V12.5498C6.31689 11.4878 6.83691 10.9238 7.89893 10.9238H15.1719V3.24805C15.1719 1.66602 14.3516 0.838379 12.7842 0.838379H2.82324ZM0.867676 4.48584C0.867676 4.99121 1.21191 5.3208 1.72461 5.3208H2.479V2.7793C2.479 2.31787 2.12012 1.98828 1.68066 1.98828C1.23389 1.98828 0.867676 2.31787 0.867676 2.7793V4.48584ZM6.4707 4.72754C6.4707 4.47119 6.66846 4.27344 6.94678 4.27344H11.9199C12.1836 4.27344 12.3887 4.47119 12.3887 4.72754C12.3887 4.99121 12.1836 5.20361 11.9199 5.20361H6.94678C6.66846 5.20361 6.4707 4.99121 6.4707 4.72754ZM6.4707 7.23975C6.4707 6.97607 6.66846 6.771 6.94678 6.771H9.5835C9.85449 6.771 10.0522 6.97607 10.0522 7.23975C10.0522 7.49609 9.85449 7.70117 9.5835 7.70117H6.94678C6.66846 7.70117 6.4707 7.49609 6.4707 7.23975ZM6.65381 16.5854H14.3296C15.7798 16.5854 16.7466 15.7505 16.7466 14.249V12.8354C16.7466 12.3301 16.4023 12.0005 15.8896 12.0005H8.24316C7.73047 12.0005 7.38623 12.3301 7.38623 12.8354V14.3735C7.38623 15.2598 7.24707 15.9922 6.65381 16.5854Z" fill="#696969"/>
</svg>
