<svg width="800" height="400" viewBox="0 0 800 400" fill="none" xmlns="http://www.w3.org/2000/svg">
<rect width="800" height="400" rx="10" fill="#FF7B30"/>
<g clip-path="url(#clip0_1901_1376)">
<path d="M297.679 309.002C295.796 306.839 294.854 304.018 294.854 300.35V268.185H286.567C273.477 268.185 263.117 264.329 255.489 256.617C247.861 248.905 244 238.466 244 225.111V114.51C244 100.967 247.861 90.5276 255.678 83.0977C263.494 75.6679 273.947 72 287.226 72H431.596C440.26 72 447.794 73.5048 454.009 76.6084C460.225 79.712 465.027 84.0382 468.418 89.5871C471.808 95.1359 473.88 101.531 474.539 108.961V112.253H395.15C383.567 112.253 373.584 114.51 365.108 118.93C356.727 123.35 350.229 129.746 345.708 138.116C341.188 146.486 338.928 156.362 338.928 167.929V245.425C338.928 254.078 340.058 260.661 342.412 265.364C344.767 270.066 347.404 273.64 350.417 275.991L319.057 304.864C316.326 307.403 313.972 309.19 311.9 310.319C309.828 311.447 307.662 312.012 305.402 312.012C302.106 312.012 299.469 310.977 297.585 308.814L297.679 309.002Z" fill="#FFA36E"/>
<path d="M484.804 326.307C482.827 325.179 480.472 323.298 477.647 320.852L436.869 284.173H398.258C384.603 284.173 373.961 280.317 366.521 272.605C359.081 264.893 355.22 254.36 355.22 241.005V171.221C355.22 157.584 358.987 147.051 366.521 139.621C374.055 132.191 384.603 128.523 398.258 128.523H512.68C525.864 128.523 536.412 132.191 544.228 139.621C552.045 146.957 556 157.396 556 170.939V241.099C556 254.36 552.139 264.893 544.417 272.605C536.694 280.317 526.335 284.173 513.433 284.173H501.85V316.244C501.85 319.818 500.908 322.639 499.119 324.802C497.235 326.966 494.693 328.094 491.396 328.094C489.042 328.094 486.876 327.53 484.898 326.401L484.804 326.307Z" fill="white"/>
<path d="M407.016 228.215C407.016 229.531 406.545 229.813 405.133 229.907L385.921 230.472C384.32 230.472 383.849 229.907 383.755 227.932L383.19 189.467C383.19 188.15 383.661 187.868 385.073 187.868H391.195C392.513 187.868 393.078 188.244 393.078 189.467L393.455 221.819L405.227 221.443C406.545 221.443 407.11 221.819 407.11 223.042V228.12L407.016 228.215ZM410.218 191.536C410.218 189.561 410.783 188.996 412.384 188.996H417.658C419.259 188.996 419.824 189.561 419.824 191.536V203.856H423.12V190.971C423.12 188.996 423.685 188.432 425.286 188.432H430.56C432.161 188.432 432.726 188.996 432.726 190.971V225.675C432.726 227.65 432.255 228.215 430.56 228.215H425.286C423.685 228.215 423.12 227.65 423.12 225.675V212.32H419.824V226.24C419.824 228.215 419.353 228.779 417.658 228.779H412.384C410.783 228.779 410.218 228.215 410.218 226.24V191.536Z" fill="#EF6212"/>
<path d="M443.462 199.624H439.035C437.717 199.812 437.152 199.436 437.152 198.119V192.852C437.152 191.536 437.623 191.253 439.035 191.253L451.09 190.971C452.879 190.971 453.444 191.536 453.256 193.511L450.807 224.547C450.619 226.522 450.336 227.086 448.641 227.086H443.65C442.049 227.086 441.296 226.522 441.484 224.547L443.367 199.624H443.462ZM460.978 196.52H456.928C455.61 196.708 455.045 196.332 455.045 195.015V189.749C455.045 188.432 455.516 188.15 456.928 188.15L468.7 187.868C470.49 187.868 471.055 188.432 470.866 190.407L469.83 203.95H475.01V191.536C475.01 189.561 475.575 188.996 477.176 188.996H482.45C484.051 188.996 484.616 189.561 484.616 191.536V226.24C484.616 228.215 484.145 228.779 482.45 228.779H477.176C475.575 228.779 475.01 228.215 475.01 226.24V212.414H469.171L468.041 227.368C467.853 229.343 467.57 229.907 465.875 229.907H460.601C459 229.907 458.247 229.343 458.435 227.368L460.978 196.52Z" fill="#EF6212"/>
<path d="M501.567 196.708V210.722L525.77 210.345C527.371 210.345 527.654 210.816 527.654 212.602V216.741C527.654 218.528 527.371 218.998 525.77 218.998L514.94 219.186V222.76L526.9 222.572C528.219 222.572 528.784 222.948 528.784 224.17V229.437C528.784 230.754 528.313 231.036 526.9 231.036L493.468 231.6C492.15 231.6 491.585 231.224 491.585 230.001V224.735C491.585 223.418 492.056 223.136 493.468 223.136L505.429 222.948V219.374L494.222 219.562C492.621 219.562 492.15 218.81 492.056 217.023L491.679 190.877C491.679 188.902 492.15 188.338 493.845 188.338L526.618 187.774C528.219 187.774 528.501 188.056 528.501 190.031V193.887C528.501 195.862 528.313 196.05 526.618 196.144L501.567 196.614V196.708Z" fill="#EF6212"/>
</g>
<defs>
<clipPath id="clip0_1901_1376">
<rect width="312" height="256" fill="white" transform="translate(244 72)"/>
</clipPath>
</defs>
</svg>
