<svg width="17" height="18" viewBox="0 0 17 18" fill="none" xmlns="http://www.w3.org/2000/svg">
<path d="M4.11963 1.27051H13.6191C13.5679 0.611328 13.1797 0.259766 12.4692 0.259766H5.26221C4.55908 0.259766 4.16357 0.611328 4.11963 1.27051ZM2.55957 3.40186H15.062C14.9595 2.70605 14.6006 2.30322 13.8169 2.30322H3.79736C3.01367 2.30322 2.66211 2.70605 2.55957 3.40186ZM3.27734 17.1934H14.3223C15.9043 17.1934 16.7393 16.373 16.7393 14.8057V6.99805C16.7393 5.43066 15.9043 4.61035 14.3223 4.61035H3.27734C1.68799 4.61035 0.867676 5.42334 0.867676 6.99805V14.8057C0.867676 16.373 1.68799 17.1934 3.27734 17.1934ZM8.7998 12.0811C7.52539 12.0737 6.53662 11.0117 6.5293 9.60547C6.5293 8.27246 7.53271 7.1665 8.7998 7.1665C10.0742 7.1665 11.0703 8.27246 11.0703 9.60547C11.0703 11.0117 10.0815 12.0957 8.7998 12.0811ZM4.50781 15.7725C5.08643 14.2417 6.77832 13.1724 8.7998 13.1724C10.8286 13.1724 12.5132 14.2417 13.0991 15.7725H4.50781Z" fill="#696969"/>
</svg>
